<svg fill="#000000" xmlns="http://www.w3.org/2000/svg" xmlns:xlink="http://www.w3.org/1999/xlink" version="1.1" x="0px" y="0px" viewBox="0 0 100 100" enable-background="new 0 0 100 100" xml:space="preserve"><symbol viewBox="-27.299 -39.024 54.598 78.047"><path fill="none" d="M11.157,34.02c-1.275-1.85-3.408-3.026-5.733-3.026c-2.13,0-4.118,0.985-5.424,2.607   c-1.306-1.622-3.294-2.607-5.423-2.607c-2.325,0-4.457,1.176-5.734,3.026c-1.275-1.85-3.408-3.026-5.733-3.026   c-1.913,0-3.648,0.776-4.908,2.029v-66.474c1.26,1.253,2.995,2.029,4.908,2.029c2.325,0,4.458-1.176,5.733-3.026   c1.277,1.85,3.409,3.026,5.734,3.026c2.129,0,4.117-0.986,5.423-2.607c1.306,1.622,3.294,2.607,5.424,2.607   c2.325,0,4.458-1.176,5.733-3.026c1.277,1.85,3.409,3.026,5.734,3.026c1.913,0,3.647-0.776,4.907-2.028v66.473   c-1.26-1.253-2.994-2.028-4.907-2.028C14.567,30.995,12.435,32.17,11.157,34.02z"/><path fill="#000000" stroke="#000000" stroke-width="3" stroke-miterlimit="10" d="M-20.463-37.524   c0.391,1.615,1.839,2.822,3.573,2.822c1.733,0,3.181-1.207,3.572-2.822h4.323c0.391,1.615,1.839,2.822,3.573,2.822   s3.182-1.207,3.573-2.822h3.701c0.391,1.615,1.839,2.822,3.573,2.822s3.182-1.207,3.573-2.822h4.322   c0.391,1.615,1.839,2.822,3.573,2.822s3.182-1.207,3.573-2.822h5.335v75.047h-5.266c-0.219-1.825-1.759-3.25-3.641-3.25   s-3.423,1.425-3.641,3.25H9.065c-0.219-1.825-1.759-3.25-3.641-3.25s-3.423,1.425-3.641,3.25h-3.564   c-0.219-1.825-1.759-3.25-3.641-3.25s-3.423,1.425-3.641,3.25h-4.186c-0.219-1.825-1.758-3.25-3.641-3.25   c-1.883,0-3.423,1.425-3.641,3.25h-5.267v-75.047H-20.463z"/></symbol><symbol viewBox="-30.282 -48.056 60.563 94.113"><path fill="#000000" stroke="#000000" stroke-width="6" stroke-miterlimit="10" d="M16.006,43.056   c-3.233-4.883-8.77-8.108-15.065-8.108s-11.832,3.225-15.065,8.108h-10.584v-88.113h10.584c3.233,4.883,8.77,8.108,15.065,8.108   s11.832-3.224,15.065-8.108H26.59v88.113H16.006z"/><line fill="none" stroke="#000000" stroke-width="5" stroke-linecap="round" stroke-linejoin="round" stroke-miterlimit="10" stroke-dasharray="7,8" x1="27.781" y1="-20.755" x2="-27.782" y2="-20.755"/></symbol><symbol viewBox="-24.712 -42.834 54.356 85.667"><path fill="#000000" stroke="#000000" stroke-width="5" stroke-miterlimit="10" d="M17.181,40.333h-4.475   c-0.466-2.355-2.539-4.131-5.031-4.131c-2.491,0-4.565,1.776-5.03,4.131h-4.883c-0.466-2.355-2.539-4.131-5.031-4.131   c-2.491,0-4.565,1.776-5.03,4.131h-4.883c-0.466-2.355-2.539-4.131-5.03-4.131v-72.023c2.622,0,4.76-1.974,5.069-4.512h4.806   c0.309,2.539,2.447,4.512,5.069,4.512c2.622,0,4.76-1.974,5.069-4.512h4.806c0.309,2.539,2.447,4.512,5.069,4.512   c2.622,0,4.76-1.974,5.069-4.512h4.398c0.309,2.539,2.447,4.512,5.069,4.512v72.023C19.72,36.202,17.647,37.978,17.181,40.333z"/><line fill="none" stroke="#000000" stroke-width="4" stroke-linecap="round" stroke-linejoin="round" stroke-miterlimit="10" stroke-dasharray="7,6" x1="-22.644" y1="-17.395" x2="27.644" y2="-17.395"/></symbol><symbol viewBox="-23.971 -42.094 47.944 84.188"><g><path fill="#000000" stroke="#000000" stroke-width="3.521" stroke-miterlimit="10" d="M17.182,40.333h-4.475    c-0.466-2.355-2.539-4.131-5.031-4.131c-2.491,0-4.565,1.776-5.03,4.131h-4.883c-0.466-2.355-2.539-4.131-5.031-4.131    c-2.491,0-4.565,1.776-5.03,4.131h-4.883c-0.466-2.355-2.539-4.131-5.03-4.131v-72.023c2.622,0,4.76-1.974,5.069-4.512h4.806    c0.309,2.539,2.447,4.512,5.069,4.512c2.622,0,4.76-1.974,5.069-4.512h4.806c0.309,2.539,2.447,4.512,5.069,4.512    c2.622,0,4.76-1.974,5.069-4.512h4.398c0.309,2.539,2.447,4.512,5.069,4.512v72.023C19.721,36.202,17.648,37.978,17.182,40.333z"/></g><polygon fill="#000000" stroke="#000000" stroke-width="3.8113" stroke-miterlimit="10" points="5.14,17.02 11.952,13.853    8.431,7.217 7.524,-0.241 0.124,1.057 -7.248,-0.385 -8.301,7.053 -11.951,13.62 -5.201,16.919 -0.084,22.42  "/></symbol><symbol id="a" viewBox="-21.087 -31.266 42.17 72.87"><path fill="#000000" stroke="#000000" stroke-width="5" stroke-miterlimit="10" d="M6.373,39.104h5.21c0-3.87,3.13-7,7-7v-53.87   c-3.87,0-7-3.14-7-7h-5.21"/><path fill="#000000" stroke="#000000" stroke-width="5" stroke-miterlimit="10" d="M-6.377-28.766h-5.21c0,3.86-3.13,7-7,7v53.87   c3.87,0,7,3.13,7,7h5.21"/><line fill="none" stroke="#000000" stroke-width="5" stroke-miterlimit="10" x1="2.373" y1="39.104" x2="-2.377" y2="39.104"/><line fill="none" stroke="#000000" stroke-width="5" stroke-miterlimit="10" x1="2.373" y1="-28.766" x2="-2.377" y2="-28.766"/><g><path stroke="#000000" stroke-width="0.9" stroke-miterlimit="10" d="M-9.901-10.118c0-0.994-0.806-1.8-1.8-1.8    s-1.8,0.806-1.8,1.8s0.806,1.8,1.8,1.8S-9.901-9.124-9.901-10.118z"/><path stroke="#000000" stroke-width="0.9" stroke-miterlimit="10" d="M-2.101-10.118c0-0.994-0.806-1.8-1.8-1.8    s-1.8,0.806-1.8,1.8s0.806,1.8,1.8,1.8S-2.101-9.124-2.101-10.118z"/><path stroke="#000000" stroke-width="0.9" stroke-miterlimit="10" d="M5.699-10.118c0-0.994-0.806-1.8-1.8-1.8s-1.8,0.806-1.8,1.8    s0.806,1.8,1.8,1.8S5.699-9.124,5.699-10.118z"/><path stroke="#000000" stroke-width="0.9" stroke-miterlimit="10" d="M13.499-10.118c0-0.994-0.806-1.8-1.8-1.8    s-1.8,0.806-1.8,1.8s0.806,1.8,1.8,1.8S13.499-9.124,13.499-10.118z"/></g></symbol><symbol viewBox="-21.086 -31.266 42.17 72.87"><use xlink:href="#a" width="42.17" height="72.87" x="-21.087" y="-31.266" transform="matrix(1 0 0 1 6.996482e-004 -2.671033e-004)" overflow="visible"/><line fill="none" stroke="#000000" stroke-width="4" stroke-miterlimit="10" x1="9.224" y1="13.75" x2="-9.223" y2="13.75"/></symbol><g display="none"><path display="inline" fill="#000000" d="M468.792,954.743H-769.006c-2.084,0-3.789-1.705-3.789-3.789V-236.211   c0-2.084,1.705-3.789,3.789-3.789H468.792c2.084,0,3.789,1.705,3.789,3.789V950.954   C472.582,953.038,470.877,954.743,468.792,954.743z"/></g><g><g><path d="M86.487,13.465h-2.15v2.142v1.739c0,3.59-2.91,6.5-6.5,6.5h-1.571c-3.59,0-6.501-2.911-6.501-6.501v-1.739v-2.142H30.414    v2.142v1.739c0,3.59-2.91,6.5-6.5,6.5h-1.572c-3.59,0-6.501-2.911-6.501-6.501v-1.739v-2.142h-2.328    c-4.437,0-8.035,3.597-8.035,8.035v65.465c0,4.438,3.598,8.035,8.035,8.035h61.569c1.084,0,2.123-0.429,2.892-1.192l15.336-15.23    c0.776-0.771,1.212-1.819,1.212-2.913V21.501C94.523,17.063,90.925,13.465,86.487,13.465z M90.231,73.543H80.207    c-3.24,0-5.89,2.65-5.89,5.89v11.275H13.512c-2.064,0-3.743-1.679-3.743-3.744V33.759h80.462V73.543z"/></g><path d="M32.04,39.477H22.65c-2.029,0-3.673,1.827-3.673,4.082v4.234c0,2.254,1.645,4.082,3.673,4.082h9.389   c2.029,0,3.673-1.827,3.673-4.082v-4.234C35.713,41.305,34.068,39.477,32.04,39.477z"/><path d="M54.784,39.477h-9.389c-2.029,0-3.673,1.827-3.673,4.082v4.234c0,2.254,1.645,4.082,3.673,4.082h9.389   c2.029,0,3.673-1.827,3.673-4.082v-4.234C58.457,41.305,56.812,39.477,54.784,39.477z"/><path d="M68.138,51.875h9.389c2.029,0,3.673-1.827,3.673-4.082v-4.234c0-2.254-1.645-4.082-3.673-4.082h-9.389   c-2.029,0-3.673,1.827-3.673,4.082v4.234C64.465,50.047,66.11,51.875,68.138,51.875z"/><path d="M32.04,56.166H22.65c-2.029,0-3.673,1.827-3.673,4.082v4.234c0,2.254,1.645,4.082,3.673,4.082h9.389   c2.029,0,3.673-1.827,3.673-4.082v-4.234C35.713,57.993,34.068,56.166,32.04,56.166z"/><path d="M54.784,56.166h-9.389c-2.029,0-3.673,1.827-3.673,4.082v4.234c0,2.254,1.645,4.082,3.673,4.082h9.389   c2.029,0,3.673-1.827,3.673-4.082v-4.234C58.457,57.993,56.812,56.166,54.784,56.166z"/><path d="M81.201,64.482v-4.234c0-2.254-1.645-4.082-3.673-4.082h-9.389c-2.029,0-3.673,1.827-3.673,4.082v4.234   c0,2.254,1.645,4.082,3.673,4.082h9.389C79.557,68.563,81.201,66.736,81.201,64.482z"/><path d="M32.04,72.855H22.65c-2.029,0-3.673,1.827-3.673,4.082v4.234c0,2.254,1.645,4.082,3.673,4.082h9.389   c2.029,0,3.673-1.827,3.673-4.082v-4.234C35.713,74.682,34.068,72.855,32.04,72.855z"/><path d="M54.784,72.855h-9.389c-2.029,0-3.673,1.827-3.673,4.082v4.234c0,2.254,1.645,4.082,3.673,4.082h9.389   c2.029,0,3.673-1.827,3.673-4.082v-4.234C58.457,74.682,56.812,72.855,54.784,72.855z"/><path d="M22.341,21.055h1.572c2.045,0,3.708-1.664,3.708-3.708V8.708C27.62,6.664,25.958,5,23.913,5h-1.572   c-2.045,0-3.708,1.664-3.708,3.708v8.638C18.633,19.391,20.296,21.055,22.341,21.055z"/><path d="M76.266,21.055h1.57c2.045,0,3.708-1.664,3.708-3.708V8.708C81.544,6.664,79.881,5,77.836,5h-1.57   c-2.045,0-3.708,1.664-3.708,3.708v8.638C72.558,19.391,74.22,21.055,76.266,21.055z"/></g></svg>