<svg xmlns="http://www.w3.org/2000/svg" width="36" height="31" viewBox="0 0 36 31">
    <path d="M35.507 13.624l-5.92 6.014a1.714 1.714 0 0 1-2.444 0l-5.922-6.014a1.714 1.714 0 1 1 2.444-2.405l3.31 3.361C26.545 8.358 21.438 3.43 15.218 3.43c-6.5 0-11.79 5.383-11.79 12s5.29 12 11.79 12c2.393 0 4.695-.725 6.658-2.096a1.715 1.715 0 0 1 1.963 2.812 14.99 14.99 0 0 1-8.621 2.712C6.828 30.857 0 23.936 0 15.428 0 6.921 6.827 0 15.218 0c7.902 0 14.415 6.14 15.147 13.96l2.699-2.74a1.714 1.714 0 1 1 2.443 2.404"/>
</svg>
