<svg xmlns="http://www.w3.org/2000/svg" width="50" height="48" viewBox="0 0 50 48">
    <path fill="none" fill-rule="evenodd" stroke="#00796B" stroke-width="3" d="M23.705 2.313c.244-.495.75-.81 1.301-.813a1.46 1.46 0 0 1 1.294.816l5.44 11.065a4.455 4.455 0 0 0 3.347 2.44l12.175 1.773a1.458 1.458 0 0 1 .801 2.483l-8.81 8.615a4.466 4.466 0 0 0-1.275 3.948l2.079 12.16a1.469 1.469 0 0 1-.574 1.425 1.444 1.444 0 0 1-1.521.11l-10.887-5.743a4.44 4.44 0 0 0-4.14-.002L12.04 46.335a1.444 1.444 0 0 1-1.524-.113 1.465 1.465 0 0 1-.57-1.422l2.078-12.167a4.451 4.451 0 0 0-1.272-3.937l-8.815-8.62a1.455 1.455 0 0 1 .806-2.482l12.17-1.774a4.446 4.446 0 0 0 3.344-2.437l5.447-11.07zm0 0zm0 0z"/>
</svg>
