<svg xmlns="http://www.w3.org/2000/svg" width="50" height="48" viewBox="0 0 50 48">
    <path fill="#00796B" fill-rule="evenodd" d="M22.36 1.65A2.961 2.961 0 0 1 25 0a2.965 2.965 0 0 1 2.644 1.65l5.442 11.069a2.953 2.953 0 0 0 2.218 1.617L47.48 16.11a2.96 2.96 0 0 1 2.378 2.012 2.966 2.966 0 0 1-.745 3.027l-8.811 8.616a2.964 2.964 0 0 0-.845 2.618l2.08 12.165a2.97 2.97 0 0 1-1.17 2.889 2.948 2.948 0 0 1-3.105.224L26.375 41.92a2.94 2.94 0 0 0-2.746 0L12.74 47.66a2.944 2.944 0 0 1-3.103-.224 2.968 2.968 0 0 1-1.168-2.89l2.077-12.167a2.955 2.955 0 0 0-.845-2.615L.889 21.149a2.958 2.958 0 1 1 1.634-5.04l12.174-1.773a2.945 2.945 0 0 0 2.216-1.617L22.36 1.65z"/>
</svg>
