<?xml version="1.0" encoding="UTF-8"?>
<svg width="90px" height="90px" viewBox="0 0 90 90" version="1.1" xmlns="http://www.w3.org/2000/svg" xmlns:xlink="http://www.w3.org/1999/xlink">
    <!-- Generator: Sketch 49.1 (51147) - http://www.bohemiancoding.com/sketch -->
    <title>calendar 2</title>
    <desc>Created with Sketch.</desc>
    <defs></defs>
    <g id="Page-1" stroke="none" stroke-width="1" fill="none" fill-rule="evenodd">
        <g id="calendar" fill="#000000" fill-rule="nonzero">
            <g id="Group">
                <path d="M81.487,8.465 L79.337,8.465 L79.337,10.607 L79.337,12.346 C79.337,15.936 76.427,18.846 72.837,18.846 L71.266,18.846 C67.676,18.846 64.765,15.935 64.765,12.345 L64.765,10.606 L64.765,8.464 L25.414,8.464 L25.414,10.606 L25.414,12.345 C25.414,15.935 22.504,18.845 18.914,18.845 L17.342,18.845 C13.752,18.845 10.841,15.934 10.841,12.344 L10.841,10.605 L10.841,8.463 L8.513,8.463 C4.076,8.463 0.478,12.06 0.478,16.498 L0.478,81.963 C0.478,86.401 4.076,89.998 8.513,89.998 L70.082,89.998 C71.166,89.998 72.205,89.569 72.974,88.806 L88.31,73.576 C89.086,72.805 89.522,71.757 89.522,70.663 L89.522,16.501 C89.523,12.063 85.925,8.465 81.487,8.465 Z M85.231,68.543 L75.207,68.543 C71.967,68.543 69.317,71.193 69.317,74.433 L69.317,85.708 L8.512,85.708 C6.448,85.708 4.769,84.029 4.769,81.964 L4.769,28.759 L85.231,28.759 L85.231,68.543 Z" id="Shape"></path>
                <path d="M27.04,34.477 L17.65,34.477 C15.621,34.477 13.977,36.304 13.977,38.559 L13.977,42.793 C13.977,45.047 15.622,46.875 17.65,46.875 L27.039,46.875 C29.068,46.875 30.712,45.048 30.712,42.793 L30.712,38.559 C30.713,36.305 29.068,34.477 27.04,34.477 Z" id="Shape"></path>
                <path d="M49.784,34.477 L40.395,34.477 C38.366,34.477 36.722,36.304 36.722,38.559 L36.722,42.793 C36.722,45.047 38.367,46.875 40.395,46.875 L49.784,46.875 C51.813,46.875 53.457,45.048 53.457,42.793 L53.457,38.559 C53.457,36.305 51.812,34.477 49.784,34.477 Z" id="Shape"></path>
                <path d="M63.138,46.875 L72.527,46.875 C74.556,46.875 76.2,45.048 76.2,42.793 L76.2,38.559 C76.2,36.305 74.555,34.477 72.527,34.477 L63.138,34.477 C61.109,34.477 59.465,36.304 59.465,38.559 L59.465,42.793 C59.465,45.047 61.11,46.875 63.138,46.875 Z" id="Shape"></path>
                <path d="M27.04,51.166 L17.65,51.166 C15.621,51.166 13.977,52.993 13.977,55.248 L13.977,59.482 C13.977,61.736 15.622,63.564 17.65,63.564 L27.039,63.564 C29.068,63.564 30.712,61.737 30.712,59.482 L30.712,55.248 C30.713,52.993 29.068,51.166 27.04,51.166 Z" id="Shape"></path>
                <path d="M49.784,51.166 L40.395,51.166 C38.366,51.166 36.722,52.993 36.722,55.248 L36.722,59.482 C36.722,61.736 38.367,63.564 40.395,63.564 L49.784,63.564 C51.813,63.564 53.457,61.737 53.457,59.482 L53.457,55.248 C53.457,52.993 51.812,51.166 49.784,51.166 Z" id="Shape"></path>
                <path d="M76.201,59.482 L76.201,55.248 C76.201,52.994 74.556,51.166 72.528,51.166 L63.139,51.166 C61.11,51.166 59.466,52.993 59.466,55.248 L59.466,59.482 C59.466,61.736 61.111,63.564 63.139,63.564 L72.528,63.564 C74.557,63.563 76.201,61.736 76.201,59.482 Z" id="Shape"></path>
                <path d="M27.04,67.855 L17.65,67.855 C15.621,67.855 13.977,69.682 13.977,71.937 L13.977,76.171 C13.977,78.425 15.622,80.253 17.65,80.253 L27.039,80.253 C29.068,80.253 30.712,78.426 30.712,76.171 L30.712,71.937 C30.713,69.682 29.068,67.855 27.04,67.855 Z" id="Shape"></path>
                <path d="M49.784,67.855 L40.395,67.855 C38.366,67.855 36.722,69.682 36.722,71.937 L36.722,76.171 C36.722,78.425 38.367,80.253 40.395,80.253 L49.784,80.253 C51.813,80.253 53.457,78.426 53.457,76.171 L53.457,71.937 C53.457,69.682 51.812,67.855 49.784,67.855 Z" id="Shape"></path>
                <path d="M17.341,16.055 L18.913,16.055 C20.958,16.055 22.621,14.391 22.621,12.347 L22.621,3.708 C22.62,1.664 20.958,0 18.913,0 L17.341,0 C15.296,0 13.633,1.664 13.633,3.708 L13.633,12.346 C13.633,14.391 15.296,16.055 17.341,16.055 Z" id="Shape"></path>
                <path d="M71.266,16.055 L72.836,16.055 C74.881,16.055 76.544,14.391 76.544,12.347 L76.544,3.708 C76.544,1.664 74.881,0 72.836,0 L71.266,0 C69.221,0 67.558,1.664 67.558,3.708 L67.558,12.346 C67.558,14.391 69.22,16.055 71.266,16.055 Z" id="Shape"></path>
            </g>
        </g>
    </g>
</svg>