<?xml version="1.0" encoding="UTF-8"?>
<svg width="14px" height="14px" viewBox="0 0 14 14" version="1.1" xmlns="http://www.w3.org/2000/svg" xmlns:xlink="http://www.w3.org/1999/xlink">
    <!-- Generator: Sketch 49.1 (51147) - http://www.bohemiancoding.com/sketch -->
    <title>search</title>
    <desc>Created with Sketch.</desc>
    <defs></defs>
    <g id="search" stroke="none" stroke-width="1" fill="none" fill-rule="evenodd">
        <path d="M9.81625,8.69125 L9.22375,8.69125 L9.01375,8.48875 C9.74875,7.63375 10.19125,6.52375 10.19125,5.31625 C10.19125,2.62375 8.00875,0.44125 5.31625,0.44125 C2.62375,0.44125 0.44125,2.62375 0.44125,5.31625 C0.44125,8.00875 2.62375,10.19125 5.31625,10.19125 C6.52375,10.19125 7.63375,9.74875 8.48875,9.01375 L8.69125,9.22375 L8.69125,9.81625 L12.44125,13.55875 L13.55875,12.44125 L9.81625,8.69125 Z M5.31625,8.69125 C3.44875,8.69125 1.94125,7.18375 1.94125,5.31625 C1.94125,3.44875 3.44875,1.94125 5.31625,1.94125 C7.18375,1.94125 8.69125,3.44875 8.69125,5.31625 C8.69125,7.18375 7.18375,8.69125 5.31625,8.69125 Z" fill="#FF0000" fill-rule="nonzero"></path>
    </g>
</svg>